<svg xmlns="http://www.w3.org/2000/svg" xmlns:xlink="http://www.w3.org/1999/xlink" version="1.1" x="0px" y="0px" viewBox="0 0 24 30" style="enable-background:new 0 0 24 24;" xml:space="preserve"><g><path fill='white' d="M16.243,8.211h-1.854V6.23c0-0.479-0.39-0.869-0.869-0.869h-3.041c-0.479,0-0.869,0.39-0.869,0.869v1.981H7.757   c-0.479,0-0.869,0.39-0.869,0.869v8.69c0,0.479,0.39,0.869,0.869,0.869h8.486c0.479,0,0.869-0.39,0.869-0.869V9.08   C17.112,8.6,16.722,8.211,16.243,8.211z M10.189,6.23c0-0.16,0.13-0.29,0.29-0.29h3.041c0.16,0,0.29,0.13,0.29,0.29v1.981h-3.621   V6.23z M16.533,17.77c0,0.16-0.13,0.29-0.29,0.29H7.757c-0.16,0-0.29-0.13-0.29-0.29V9.08c0-0.16,0.13-0.29,0.29-0.29H9.61v1.061   c0,0.16,0.13,0.29,0.29,0.29c0.16,0,0.29-0.13,0.29-0.29V8.79h3.621v1.061c0,0.16,0.13,0.29,0.29,0.29c0.16,0,0.29-0.13,0.29-0.29   V8.79h1.854c0.16,0,0.29,0.13,0.29,0.29V17.77z"/></g></svg>