<svg xmlns="http://www.w3.org/2000/svg" xmlns:xlink="http://www.w3.org/1999/xlink" version="1.1" x="0px" y="0px" viewBox="0 0 128 160" enable-background="new 0 0 128 128" xml:space="preserve"><g><path d="M5.1,47.8c0.4,0,0.7-0.3,0.7-0.7V36.5c0-0.4-0.3-0.7-0.7-0.7c-0.4,0-0.7,0.3-0.7,0.7v10.6C4.4,47.5,4.7,47.8,5.1,47.8z"/><path d="M5.1,56.6c0.4,0,0.7-0.3,0.7-0.7v-3.8c0-0.4-0.3-0.7-0.7-0.7c-0.4,0-0.7,0.3-0.7,0.7v3.8C4.4,56.3,4.7,56.6,5.1,56.6z"/><path d="M109.7,81.1c0.4,0,0.7-0.3,0.7-0.7V69.8c0-0.4-0.3-0.7-0.7-0.7c-0.4,0-0.7,0.3-0.7,0.7v10.6   C108.9,80.8,109.3,81.1,109.7,81.1z"/><path d="M108.9,89.2c0,0.4,0.3,0.7,0.7,0.7c0.4,0,0.7-0.3,0.7-0.7v-3.8c0-0.4-0.3-0.7-0.7-0.7c-0.4,0-0.7,0.3-0.7,0.7V89.2z"/><path d="M123.5,16.7c-2.2,0-4,1.8-4,4c0,2.2,1.8,4,4,4c2.2,0,4-1.8,4-4C127.5,18.5,125.7,16.7,123.5,16.7z M123.5,23.2   c-1.4,0-2.5-1.1-2.5-2.5c0-1.4,1.1-2.5,2.5-2.5c1.4,0,2.5,1.1,2.5,2.5C126,22,124.9,23.2,123.5,23.2z"/><path d="M6,111.9c-2.2,0-4,1.8-4,4s1.8,4,4,4c2.2,0,4-1.8,4-4S8.2,111.9,6,111.9z M6,118.4c-1.4,0-2.5-1.1-2.5-2.5   c0-1.4,1.1-2.5,2.5-2.5c1.4,0,2.5,1.1,2.5,2.5C8.5,117.2,7.4,118.4,6,118.4z"/><path d="M18.9,20.7c0,0.4,0.3,0.7,0.7,0.7h13.2c0.4,0,0.7-0.3,0.7-0.7c0-0.4-0.3-0.7-0.7-0.7H19.6C19.2,19.9,18.9,20.3,18.9,20.7z"/><path d="M11,21.4h4.3c0.4,0,0.7-0.3,0.7-0.7c0-0.4-0.3-0.7-0.7-0.7H11c-0.4,0-0.7,0.3-0.7,0.7C10.3,21.1,10.6,21.4,11,21.4z"/><path d="M11,16.9h9.2c0.4,0,0.7-0.3,0.7-0.7c0-0.4-0.3-0.7-0.7-0.7H11c-0.4,0-0.7,0.3-0.7,0.7C10.3,16.5,10.6,16.9,11,16.9z"/><path d="M24.2,16.9h3c0.4,0,0.7-0.3,0.7-0.7c0-0.4-0.3-0.7-0.7-0.7h-3c-0.4,0-0.7,0.3-0.7,0.7C23.5,16.5,23.8,16.9,24.2,16.9z"/><path d="M110.4,109.4c0-0.4-0.3-0.7-0.7-0.7H96.5c-0.4,0-0.7,0.3-0.7,0.7c0,0.4,0.3,0.7,0.7,0.7h13.2   C110.1,110.1,110.4,109.8,110.4,109.4z"/><path d="M118.3,110.1c0.4,0,0.7-0.3,0.7-0.7c0-0.4-0.3-0.7-0.7-0.7H114c-0.4,0-0.7,0.3-0.7,0.7c0,0.4,0.3,0.7,0.7,0.7H118.3z"/><path d="M118.3,113.2h-9.2c-0.4,0-0.7,0.3-0.7,0.7c0,0.4,0.3,0.7,0.7,0.7h9.2c0.4,0,0.7-0.3,0.7-0.7   C119,113.5,118.7,113.2,118.3,113.2z"/><path d="M105.1,113.2h-3c-0.4,0-0.7,0.3-0.7,0.7c0,0.4,0.3,0.7,0.7,0.7h3c0.4,0,0.7-0.3,0.7-0.7   C105.8,113.5,105.5,113.2,105.1,113.2z"/><path d="M86,11.1c0.1,0.1,0.3,0.2,0.5,0.2c0.2,0,0.4-0.1,0.5-0.2c0.3-0.3,0.3-0.8,0-1l-1.7-1.7c-0.3-0.3-0.8-0.3-1,0   c-0.3,0.3-0.3,0.8,0,1L86,11.1z"/><path d="M91.5,16.6c0.1,0.1,0.3,0.2,0.5,0.2c0.2,0,0.4-0.1,0.5-0.2c0.3-0.3,0.3-0.8,0-1l-1.7-1.7c-0.3-0.3-0.8-0.3-1,0   c-0.3,0.3-0.3,0.8,0,1L91.5,16.6z"/><path d="M84.8,16.9c0.2,0,0.4-0.1,0.5-0.2l1.7-1.7c0.3-0.3,0.3-0.8,0-1c-0.3-0.3-0.8-0.3-1,0l-1.7,1.7c-0.3,0.3-0.3,0.8,0,1   C84.4,16.8,84.6,16.9,84.8,16.9z"/><path d="M90.3,11.3c0.2,0,0.4-0.1,0.5-0.2l1.7-1.7c0.3-0.3,0.3-0.8,0-1c-0.3-0.3-0.8-0.3-1,0l-1.7,1.7c-0.3,0.3-0.3,0.8,0,1   C90,11.3,90.2,11.3,90.3,11.3z"/><path d="M55.7,109.8c-0.3-0.3-0.8-0.3-1,0c-0.3,0.3-0.3,0.8,0,1l1.7,1.7c0.1,0.1,0.3,0.2,0.5,0.2c0.2,0,0.4-0.1,0.5-0.2   c0.3-0.3,0.3-0.8,0-1L55.7,109.8z"/><path d="M61.2,115.3c-0.3-0.3-0.8-0.3-1,0c-0.3,0.3-0.3,0.8,0,1l1.7,1.7c0.1,0.1,0.3,0.2,0.5,0.2c0.2,0,0.4-0.1,0.5-0.2   c0.3-0.3,0.3-0.8,0-1L61.2,115.3z"/><path d="M56.4,115.3l-1.7,1.7c-0.3,0.3-0.3,0.8,0,1c0.1,0.1,0.3,0.2,0.5,0.2c0.2,0,0.4-0.1,0.5-0.2l1.7-1.7c0.3-0.3,0.3-0.8,0-1   C57.1,115,56.7,115,56.4,115.3z"/><path d="M61.9,109.8l-1.7,1.7c-0.3,0.3-0.3,0.8,0,1c0.1,0.1,0.3,0.2,0.5,0.2c0.2,0,0.4-0.1,0.5-0.2l1.7-1.7c0.3-0.3,0.3-0.8,0-1   C62.7,109.5,62.2,109.5,61.9,109.8z"/><path d="M123.7,49c-6.2-1.3-11.7-8.4-15.7-13.6c-0.5-0.6-0.9-1.2-1.3-1.7c-4.2-5.4-10.8-9-16.8-9.2c-4.4-0.2-8.2,1.5-11.2,4.8   c-2.9,3.2-4.1,7.6-3.4,11.8c-3.4,3.4-5.5,7.6-6.8,10.7l0-22.7c0-0.1-0.6-10.3,4.3-12.3c0.4-0.2,0.6-0.6,0.4-1   c-0.2-0.4-0.6-0.6-1-0.4C66.4,17.8,67,28.7,67,29.1v31.9c-0.9-2-2.2-4.2-4.2-6.2c0.6-3.1-0.2-6.3-2.3-8.6c-2.1-2.3-4.8-3.5-7.8-3.3   c-4.1,0.1-8.7,2.6-11.6,6.4c-0.3,0.4-0.6,0.8-0.9,1.2c-2.7,3.5-6.4,8.3-10.5,9.2c-0.4,0.1-0.6,0.4-0.6,0.8c0,0.4,0.4,0.7,0.8,0.6   c6.8-0.3,12.9,0,18.6,0.8c1.5,0.2,2.9,0.4,4.4,0.4c1.5,0,3.1-0.2,4.7-1c2.1-0.9,3.8-2.7,4.6-4.8c3.4,3.8,4.5,8.6,4.7,9.2v21.2   c-1.8,0.4-3.6,0.6-5.5,0.6c0.7-0.6,1.1-1.3,1.3-2c0.4-1.4-0.1-2.7-1.2-3.5c-0.1-0.1-0.4-0.3-5.9-1.5c-1.4-0.3-5.6-1.1-5.8-1.2   c0,0-0.1,0-0.1,0c-2.6,0-4.8-0.8-6.9-1.4c-3.1-1-6-2-9.2,0l-6.2,3.9l0-0.3c0-1-0.4-1.9-1.1-2.6c-0.7-0.7-1.7-1.1-2.7-1.1l-5.8,0   l0-0.1c0-0.7-0.3-1.3-0.8-1.7c-0.5-0.4-1.1-0.6-1.8-0.5C10.7,75.8,6,76,1.3,76c0,0,0,0,0,0c-0.4,0-0.7,0.3-0.7,0.7   c0,0.4,0.3,0.7,0.7,0.7c4.7,0,9.4-0.2,14.1-0.6c0.3,0,0.6,0,0.8,0.2c0.1,0.1,0.3,0.3,0.3,0.6l0,0.8l0,0l0,0l-0.1,26.2l0,0   c0,0,0,0,0,0l0,0.8c0,0.3-0.1,0.5-0.3,0.6c-0.2,0.2-0.5,0.2-0.8,0.2c-4.7-0.4-9.4-0.7-14.1-0.7c0,0,0,0,0,0c-0.4,0-0.7,0.3-0.7,0.7   c0,0.4,0.3,0.7,0.7,0.7c4.6,0,9.4,0.2,14,0.7c0.1,0,0.2,0,0.3,0c0.6,0,1.1-0.2,1.6-0.5c0.5-0.4,0.8-1,0.8-1.7l0-0.1l5.8,0   c0,0,0,0,0,0c1.7,0,3.1-1.1,3.6-2.5c1.4,0.7,2.8,0.9,4.1,0.9c3.9,0,6.9-2.3,7.1-2.4l1.7-1.1c0.8-0.5,1.8-0.7,2.8-0.5   c24.4,5.2,43-10.9,47.8-19.1c1.1-1.8,1.3-3.1,0.7-3.7c-1.6-1.8-4.4-1.8-7.1,0c0,0-0.1,0.1-0.1,0.1c-0.1,0.1-6.9,6.8-15.6,9.3   l0-29.8c0.2-0.8,1.8-8.2,7.1-13.9c1.1,3.7,3.6,6.6,7.1,8.2c2.3,1,4.6,1.4,6.8,1.4c2.1,0,4.3-0.3,6.4-0.7c8.4-1.3,17.5-1.7,27.5-1.2   c0.4,0,0.7-0.3,0.8-0.6C124.3,49.4,124.1,49,123.7,49z M57.1,60c-2.8,1.2-5.3,0.9-8.3,0.4c-4.3-0.6-8.7-1-13.5-1   c-0.5,0-1.1,0-1.6,0c3.1-2,5.7-5.4,7.8-8.1c0.3-0.4,0.6-0.8,0.9-1.1c2.2-2.8,6.3-5.6,10.5-5.8c2.6-0.1,4.8,0.9,6.6,2.9   c1.6,1.7,2.3,4.1,2.1,6.5C60,52.5,58.2,51.5,56,51c-0.1,0-3.4-0.8-7.4,1.2c-0.4,0.2-0.5,0.6-0.3,1c0.2,0.4,0.6,0.5,1,0.3   c3.5-1.8,6.3-1.1,6.3-1.1c2.3,0.6,4.1,1.6,5.6,3C60.6,57.5,59.1,59.1,57.1,60z M23.6,104C23.6,104,23.6,104,23.6,104l-5.8,0   l0.1-24.7l5.8,0c0.6,0,1.2,0.2,1.7,0.7c0.4,0.4,0.7,0.9,0.7,1.5L26,101.8C26,103,24.9,104,23.6,104z M85.1,78.2   c2.1-1.3,4.1-1.4,5.1-0.3c0.1,0.6-1.1,3.2-4.6,6.9C77,94,61.3,102.4,43.2,98.5c-1.4-0.3-2.7-0.1-3.9,0.7l-1.8,1.1   c-0.1,0-5.1,3.8-10.1,1.1l0.1-17.9l7-4.4c2.6-1.7,5-0.9,8,0.1c2.1,0.7,4.4,1.5,7.2,1.5c0.5,0.1,4.4,0.9,5.7,1.2   c2.4,0.5,5.1,1.2,5.3,1.3c0.6,0.4,0.9,1.1,0.7,1.9c-0.3,0.9-1.2,1.9-2.8,2.1c-0.2,0-0.5-0.1-0.7-0.1l-8-1.9   c-0.4-0.1-0.8,0.1-0.9,0.5c-0.1,0.4,0.1,0.8,0.5,0.9l8.8,2.1c0.1,0,0.1,0,0.2,0c0,0,0,0,0.1,0c0,0,0,0,0,0   C71.8,90.9,84,79.3,85.1,78.2z M95.7,50.2c-4.4,0.7-8.2,1.2-12.4-0.6c-3.3-1.5-5.7-4.4-6.5-8c1.4-1.3,2.9-2.4,4.7-3.3   c0.4-0.1,3.1-0.3,8.2,3.5c0.1,0.1,0.3,0.1,0.4,0.1c0.2,0,0.4-0.1,0.6-0.3c0.2-0.3,0.2-0.8-0.1-1c-2.7-2-4.8-3-6.4-3.5   c0.5-0.1,0.9-0.3,1.4-0.4c0.1,0,8-2,15.6,6.4c0.3,0.3,0.7,0.3,1,0.1c0.3-0.3,0.3-0.7,0.1-1c-8.2-9-16.7-6.9-17.1-6.9   c-3.5,0.9-6.4,2.5-8.8,4.5c-0.3-3.5,0.8-7,3.2-9.6c2.6-2.9,5.8-4.3,9.6-4.3c0.2,0,0.3,0,0.5,0c6.3,0.2,12.5,4.5,15.7,8.7   c0.4,0.5,0.9,1.1,1.3,1.7c3.3,4.3,7.5,9.8,12.5,12.6C110.8,48.6,103.1,49.1,95.7,50.2z"/></g>></svg>
