<svg xmlns="http://www.w3.org/2000/svg" xmlns:xlink="http://www.w3.org/1999/xlink" version="1.1" x="0px" y="0px" viewBox="0 0 128 160" enable-background="new 0 0 128 128" xml:space="preserve"><g><path d="M9.8,31.9c0.4,0,0.7-0.3,0.7-0.7V20.4c0-0.4-0.3-0.7-0.7-0.7C9.4,19.7,9,20,9,20.4v10.8C9,31.6,9.4,31.9,9.8,31.9z"/><path d="M9.8,40.8c0.4,0,0.7-0.3,0.7-0.7v-3.9c0-0.4-0.3-0.7-0.7-0.7c-0.4,0-0.7,0.3-0.7,0.7v3.9C9,40.5,9.4,40.8,9.8,40.8z"/><path d="M120.7,79.5c-0.4,0-0.7,0.3-0.7,0.7V91c0,0.4,0.3,0.7,0.7,0.7s0.7-0.3,0.7-0.7V80.2C121.4,79.8,121.1,79.5,120.7,79.5z"/><path d="M120.7,95.3c-0.4,0-0.7,0.3-0.7,0.7v3.9c0,0.4,0.3,0.7,0.7,0.7s0.7-0.3,0.7-0.7V96C121.4,95.6,121.1,95.3,120.7,95.3z"/><path d="M24.2,8.5c2.2,0,4-1.8,4-4c0-2.2-1.8-4-4-4c-2.2,0-4,1.8-4,4C20.2,6.7,22,8.5,24.2,8.5z M24.2,2c1.4,0,2.6,1.1,2.6,2.6   c0,1.4-1.1,2.6-2.6,2.6c-1.4,0-2.6-1.1-2.6-2.6C21.7,3.1,22.8,2,24.2,2z"/><path d="M105.5,119.4c-2.2,0-4,1.8-4,4c0,2.2,1.8,4,4,4c2.2,0,4-1.8,4-4C109.6,121.2,107.8,119.4,105.5,119.4z M105.5,125.9   c-1.4,0-2.6-1.1-2.6-2.6c0-1.4,1.1-2.6,2.6-2.6s2.6,1.1,2.6,2.6C108.1,124.8,107,125.9,105.5,125.9z"/><path d="M100.5,9.3h13.4c0.4,0,0.7-0.3,0.7-0.7c0-0.4-0.3-0.7-0.7-0.7h-13.4c-0.4,0-0.7,0.3-0.7,0.7C99.8,8.9,100.1,9.3,100.5,9.3z   "/><path d="M118.3,9.3h4.3c0.4,0,0.7-0.3,0.7-0.7c0-0.4-0.3-0.7-0.7-0.7h-4.3c-0.4,0-0.7,0.3-0.7,0.7C117.6,8.9,117.9,9.3,118.3,9.3z"/><path d="M122.6,12.4h-9.3c-0.4,0-0.7,0.3-0.7,0.7c0,0.4,0.3,0.7,0.7,0.7h9.3c0.4,0,0.7-0.3,0.7-0.7C123.4,12.7,123,12.4,122.6,12.4   z"/><path d="M106.3,12.4c-0.4,0-0.7,0.3-0.7,0.7c0,0.4,0.3,0.7,0.7,0.7h3c0.4,0,0.7-0.3,0.7-0.7c0-0.4-0.3-0.7-0.7-0.7H106.3z"/><path d="M27.5,126H14.1c-0.4,0-0.7,0.3-0.7,0.7c0,0.4,0.3,0.7,0.7,0.7h13.4c0.4,0,0.7-0.3,0.7-0.7C28.2,126.4,27.9,126,27.5,126z"/><path d="M9.7,126H5.4c-0.4,0-0.7,0.3-0.7,0.7c0,0.4,0.3,0.7,0.7,0.7h4.3c0.4,0,0.7-0.3,0.7-0.7C10.4,126.4,10.1,126,9.7,126z"/><path d="M5.4,122.9h9.3c0.4,0,0.7-0.3,0.7-0.7c0-0.4-0.3-0.7-0.7-0.7H5.4c-0.4,0-0.7,0.3-0.7,0.7C4.6,122.6,5,122.9,5.4,122.9z"/><path d="M21.7,122.9c0.4,0,0.7-0.3,0.7-0.7c0-0.4-0.3-0.7-0.7-0.7h-3c-0.4,0-0.7,0.3-0.7,0.7c0,0.4,0.3,0.7,0.7,0.7H21.7z"/><path d="M93.7,31.9c0.1,0.1,0.3,0.2,0.5,0.2s0.4-0.1,0.5-0.2c0.3-0.3,0.3-0.8,0-1L93,29.1c-0.3-0.3-0.8-0.3-1,0   c-0.3,0.3-0.3,0.8,0,1L93.7,31.9z"/><path d="M99.3,37.5c0.1,0.1,0.3,0.2,0.5,0.2c0.2,0,0.4-0.1,0.5-0.2c0.3-0.3,0.3-0.8,0-1l-1.7-1.7c-0.3-0.3-0.8-0.3-1,0   c-0.3,0.3-0.3,0.8,0,1L99.3,37.5z"/><path d="M92.4,37.7c0.2,0,0.4-0.1,0.5-0.2l1.7-1.7c0.3-0.3,0.3-0.8,0-1c-0.3-0.3-0.8-0.3-1,0l-1.7,1.7c-0.3,0.3-0.3,0.8,0,1   C92.1,37.6,92.3,37.7,92.4,37.7z"/><path d="M98,32.1c0.2,0,0.4-0.1,0.5-0.2l1.7-1.7c0.3-0.3,0.3-0.8,0-1c-0.3-0.3-0.8-0.3-1,0l-1.7,1.7c-0.3,0.3-0.3,0.8,0,1   C97.7,32,97.9,32.1,98,32.1z"/><path d="M64.1,118.9c-0.3-0.3-0.8-0.3-1,0c-0.3,0.3-0.3,0.8,0,1l1.7,1.7c0.1,0.1,0.3,0.2,0.5,0.2c0.2,0,0.4-0.1,0.5-0.2   c0.3-0.3,0.3-0.8,0-1L64.1,118.9z"/><path d="M69.7,124.5c-0.3-0.3-0.8-0.3-1,0c-0.3,0.3-0.3,0.8,0,1l1.7,1.7c0.1,0.1,0.3,0.2,0.5,0.2c0.2,0,0.4-0.1,0.5-0.2   c0.3-0.3,0.3-0.8,0-1L69.7,124.5z"/><path d="M64.8,124.5l-1.7,1.7c-0.3,0.3-0.3,0.8,0,1c0.1,0.1,0.3,0.2,0.5,0.2c0.2,0,0.4-0.1,0.5-0.2l1.7-1.7c0.3-0.3,0.3-0.8,0-1   C65.5,124.2,65.1,124.2,64.8,124.5z"/><path d="M70.4,118.9l-1.7,1.7c-0.3,0.3-0.3,0.8,0,1c0.1,0.1,0.3,0.2,0.5,0.2c0.2,0,0.4-0.1,0.5-0.2l1.7-1.7c0.3-0.3,0.3-0.8,0-1   C71.1,118.6,70.7,118.6,70.4,118.9z"/><path d="M111.9,48c-0.2-0.1-0.5-0.1-0.7,0L86.6,62.8V48.6c0-0.3-0.1-0.5-0.4-0.6c-0.2-0.1-0.5-0.1-0.7,0L59.7,63.5   c-0.2,0.1-0.4,0.4-0.4,0.6v9.2h-24l-3.5-31c-0.1-1-1-1.8-2-1.8h-7c-1,0-1.9,0.8-2,1.8l-7.8,69c-0.1,0.9,0.2,1.9,0.8,2.6   c0.6,0.7,1.5,1.1,2.5,1.1h13.3h0H60c0,0,0,0,0,0c0,0,0,0,0,0h25.7H109c1.8,0,3.3-1.5,3.3-3.3V48.6C112.3,48.3,112.2,48.1,111.9,48z    M29.7,73.3c-0.4,0-0.7,0.3-0.7,0.7v39.5H16.3c-0.5,0-1-0.2-1.4-0.6c-0.4-0.4-0.5-0.9-0.4-1.4l7.8-69c0-0.3,0.3-0.5,0.6-0.5h7   c0.3,0,0.5,0.2,0.6,0.5l3.5,30.8H29.7L29.7,73.3z M59.3,113.6H30.4V74.8h4.3h24.6V113.6z M85.1,64.1v49.4H60.8v-49l24.3-14.6V64.1z    M110.8,111.7c0,1-0.8,1.9-1.9,1.9H86.6v-49l24.3-14.6V111.7z"/><path d="M25.8,29.2c-0.5,1.9,0,4,1.4,5.4c0.1,0.1,0.3,0.2,0.5,0.2c0.2,0,0.4-0.1,0.5-0.2c0.3-0.3,0.3-0.8,0-1c-1-1-1.5-2.6-1.1-4   c0.3-1.1,1-2,1.9-2.5c1-0.5,2.1-0.7,3.1-0.4l0.8,0.2c0.3,0.1,0.6,0,0.8-0.2c0.2-0.2,0.2-0.5,0.1-0.8c-0.6-1.3-0.8-2.8-0.4-4.3   c0.4-1.6,1.4-2.9,2.8-3.7c1.4-0.8,3.1-1,4.6-0.6c1.7,0.5,3.1,1.6,3.9,3.2c0.6,1.3,0.8,2.8,0.4,4.3c-0.1,0.4,0.1,0.8,0.5,0.9   c0.4,0.1,0.8-0.1,0.9-0.5c0.4-1.5,0.3-3.1-0.2-4.6c0-0.1,0-0.3,0-0.4c-0.4-1-0.5-2-0.2-3c0.3-1.2,1.1-2.2,2.2-2.9   c1.1-0.6,2.4-0.8,3.6-0.5c1.1,0.3,2.1,1,2.7,2c0.2,0.2,0.4,0.4,0.7,0.3c0.3,0,0.5-0.2,0.6-0.5l0.2-0.6c0-0.1,0-0.2,0-0.4   c-0.3-1.6-0.3-3.3,0.2-4.9c1.5-5.6,7.3-9,13-7.4c5.6,1.5,9,7.3,7.4,13c-0.1,0.4,0.1,0.8,0.5,0.9c0.4,0.1,0.8-0.1,0.9-0.5   c1.7-6.4-2.1-13-8.5-14.8c-6.4-1.7-13,2.1-14.8,8.5c-0.4,1.4-0.5,2.7-0.4,4.1c-0.6-0.5-1.4-0.9-2.2-1.1c-1.6-0.4-3.3-0.2-4.7,0.6   c-1.4,0.8-2.5,2.2-2.9,3.8c-0.1,0.3-0.2,0.7-0.2,1c-0.9-0.9-2-1.6-3.3-1.9c-1.9-0.5-4-0.3-5.7,0.7c-1.8,1-3,2.6-3.5,4.6   c-0.4,1.3-0.4,2.6,0,3.9c-1.3-0.2-2.6,0-3.7,0.7C27.1,26.5,26.2,27.7,25.8,29.2z"/><path d="M72.3,26.8c0.9-1.8,0.7-4-0.5-5.6c-0.2-0.3-0.7-0.4-1-0.2c-0.3,0.2-0.4,0.7-0.2,1c0.8,1.2,1,2.8,0.3,4.1   c-1,2.1-3.5,2.9-5.5,2l-0.7-0.3c-0.3-0.1-0.6-0.1-0.8,0.1c-0.2,0.2-0.3,0.5-0.2,0.8c0.4,1.4,0.3,2.9-0.4,4.3   c-1.4,3-5.1,4.3-8.1,2.9c-1.6-0.8-2.8-2.2-3.2-3.9c0-0.1-0.1-0.2-0.2-0.3c-0.1-0.3-0.5-0.6-0.8-0.5c-0.4,0.1-0.7,0.5-0.6,0.9   c0.2,1,0.1,2.1-0.4,3c-0.5,1.1-1.5,2-2.7,2.4c-1.2,0.4-2.5,0.4-3.6-0.2c-1-0.5-1.9-1.4-2.3-2.4c-0.2-0.4-0.6-0.5-1-0.4   c-0.4,0.2-0.6,0.6-0.4,1c0.6,1.4,1.7,2.5,3,3.2c0.8,0.4,1.8,0.6,2.7,0.6c0.7,0,1.4-0.1,2.1-0.4c1.6-0.6,2.8-1.7,3.5-3.2   c0.1-0.3,0.3-0.6,0.4-0.9c0.7,1,1.7,1.9,2.9,2.5c1,0.5,2.2,0.7,3.2,0.7c2.8,0,5.5-1.6,6.8-4.3c0.6-1.2,0.8-2.5,0.7-3.9   C68,30.6,71,29.4,72.3,26.8z"/><path d="M34,79.9v10.2c0,0.4,0.3,0.7,0.7,0.7h7.5c0.4,0,0.7-0.3,0.7-0.7V79.9c0-0.4-0.3-0.7-0.7-0.7h-7.5   C34.3,79.2,34,79.5,34,79.9z M35.5,80.6h6v8.7h-6V80.6z"/><path d="M47.4,90.8H55c0.4,0,0.7-0.3,0.7-0.7V79.9c0-0.4-0.3-0.7-0.7-0.7h-7.5c-0.4,0-0.7,0.3-0.7,0.7v10.2   C46.7,90.5,47,90.8,47.4,90.8z M48.2,80.6h6v8.7h-6V80.6z"/><path d="M90.5,83.1h5.7c0.4,0,0.7-0.3,0.7-0.7V71.2c0-0.4-0.3-0.7-0.7-0.7h-5.7c-0.4,0-0.7,0.3-0.7,0.7v11.2   C89.7,82.8,90,83.1,90.5,83.1z M91.2,71.9h4.2v9.7h-4.2V71.9z"/><path d="M101.3,83.1h5.7c0.4,0,0.7-0.3,0.7-0.7V71.2c0-0.4-0.3-0.7-0.7-0.7h-5.7c-0.4,0-0.7,0.3-0.7,0.7v11.2   C100.5,82.8,100.9,83.1,101.3,83.1z M102,71.9h4.2v9.7H102V71.9z"/><path d="M90.5,99.4h5.7c0.4,0,0.7-0.3,0.7-0.7V87.5c0-0.4-0.3-0.7-0.7-0.7h-5.7c-0.4,0-0.7,0.3-0.7,0.7v11.2   C89.7,99.1,90,99.4,90.5,99.4z M91.2,88.3h4.2V98h-4.2V88.3z"/><path d="M101.3,99.4h5.7c0.4,0,0.7-0.3,0.7-0.7V87.5c0-0.4-0.3-0.7-0.7-0.7h-5.7c-0.4,0-0.7,0.3-0.7,0.7v11.2   C100.5,99.1,100.9,99.4,101.3,99.4z M102,88.3h4.2V98H102V88.3z"/><path d="M64.5,97.7h16.8c0.4,0,0.7-0.3,0.7-0.7v-4.9c0-0.4-0.3-0.7-0.7-0.7H64.5c-0.4,0-0.7,0.3-0.7,0.7v4.9   C63.8,97.4,64.1,97.7,64.5,97.7z M65.3,92.8h15.3v3.4H65.3V92.8z"/><path d="M64.5,106.7h16.8c0.4,0,0.7-0.3,0.7-0.7v-4.9c0-0.4-0.3-0.7-0.7-0.7H64.5c-0.4,0-0.7,0.3-0.7,0.7v4.9   C63.8,106.4,64.1,106.7,64.5,106.7z M65.3,101.9h15.3v3.4H65.3V101.9z"/></g>></svg>
