<svg xmlns="http://www.w3.org/2000/svg" xmlns:xlink="http://www.w3.org/1999/xlink" version="1.1" x="0px" y="0px" viewBox="0 0 128 160" enable-background="new 0 0 128 128" xml:space="preserve"><g><path d="M117.2,52.3c0-0.8-0.3-1.7-0.9-2.3c-1.3-1.2-3.3-1.2-4.6,0l-14,14V21c0-1.8-1.4-3.2-3.2-3.2H73l1.7-6.6   c0.1-0.2,0-0.5-0.1-0.6c-0.1-0.2-0.4-0.3-0.6-0.3h-8.4C65.9,9.6,66,9,66,8.3c0-2.5-1.9-4.5-4.3-4.5c-2.4,0-4.3,2-4.3,4.5   c0,0.7,0.1,1.3,0.4,1.9h-8.4c-0.2,0-0.4,0.1-0.6,0.3c-0.1,0.2-0.2,0.4-0.1,0.6l1.7,6.6H29.5c-1.8,0-3.2,1.4-3.2,3.2v90.2   c0,1.8,1.4,3.2,3.2,3.2h64.9c1.8,0,3.2-1.4,3.2-3.2v-38l18.6-18.6C116.9,53.9,117.2,53.1,117.2,52.3z M61.7,5.3   c1.6,0,2.9,1.4,2.9,3.1c0,0.7-0.2,1.3-0.6,1.9h-4.5C59,9.7,58.8,9,58.8,8.3C58.8,6.7,60.1,5.3,61.7,5.3z M50.3,11.7h8.8h5.2h8.8   l-1.6,6.1H51.8L50.3,11.7z M27.8,21c0-1,0.8-1.8,1.8-1.8h21.8h20.8h22.3c1,0,1.8,0.8,1.8,1.8v20.8H27.8V21z M96.2,111.2   c0,1-0.8,1.8-1.8,1.8H29.5c-1,0-1.8-0.8-1.8-1.8v-68h68.4v22.3L75.4,86.2L64.2,75c-0.6-0.6-1.4-0.9-2.3-0.9c-0.9,0-1.7,0.3-2.3,0.9   c-0.6,0.6-1,1.4-1,2.3c0,0.9,0.3,1.7,1,2.3l15.3,15.3c0.1,0.1,0.3,0.2,0.5,0.2c0.2,0,0.4-0.1,0.5-0.2l20.2-20.2V111.2z M115.2,53.5   L96.5,72.2c-0.1,0-0.1,0.1-0.2,0.2L75.4,93.3L60.7,78.5c-0.3-0.3-0.5-0.8-0.5-1.2c0-0.5,0.2-0.9,0.5-1.2c0.3-0.3,0.8-0.5,1.2-0.5   c0.5,0,0.9,0.2,1.2,0.5l11.8,11.8c0.3,0.3,0.8,0.3,1,0L112.7,51c0.7-0.7,1.8-0.7,2.5,0c0.3,0.3,0.5,0.8,0.5,1.2   C115.7,52.7,115.5,53.2,115.2,53.5z"/><path d="M107.5,26.9c0.4,0,0.7-0.3,0.7-0.7V14.6c0-0.4-0.3-0.7-0.7-0.7s-0.7,0.3-0.7,0.7v11.5C106.7,26.6,107.1,26.9,107.5,26.9z"/><path d="M107.5,34.4c0.4,0,0.7-0.3,0.7-0.7V30c0-0.4-0.3-0.7-0.7-0.7s-0.7,0.3-0.7,0.7v3.7C106.7,34.1,107.1,34.4,107.5,34.4z"/><path d="M14,87.4c-0.4,0-0.7,0.3-0.7,0.7v11.5c0,0.4,0.3,0.7,0.7,0.7c0.4,0,0.7-0.3,0.7-0.7V88.1C14.7,87.7,14.4,87.4,14,87.4z"/><path d="M14,102.7c-0.4,0-0.7,0.3-0.7,0.7v3.7c0,0.4,0.3,0.7,0.7,0.7c0.4,0,0.7-0.3,0.7-0.7v-3.7C14.7,103,14.4,102.7,14,102.7z"/><path d="M88.2,3.3c0.1,0.1,0.3,0.2,0.5,0.2c0.2,0,0.4-0.1,0.5-0.2c0.3-0.3,0.3-0.8,0-1l-1.6-1.6c-0.3-0.3-0.8-0.3-1,0   c-0.3,0.3-0.3,0.8,0,1L88.2,3.3z"/><path d="M93.3,8.4c0.1,0.1,0.3,0.2,0.5,0.2s0.4-0.1,0.5-0.2c0.3-0.3,0.3-0.8,0-1l-1.6-1.6c-0.3-0.3-0.8-0.3-1,0   c-0.3,0.3-0.3,0.8,0,1L93.3,8.4z"/><path d="M87.2,8.6c0.2,0,0.4-0.1,0.5-0.2l1.6-1.6c0.3-0.3,0.3-0.8,0-1c-0.3-0.3-0.8-0.3-1,0l-1.6,1.6c-0.3,0.3-0.3,0.8,0,1   C86.8,8.5,87,8.6,87.2,8.6z"/><path d="M92.2,3.5c0.2,0,0.4-0.1,0.5-0.2l1.6-1.6c0.3-0.3,0.3-0.8,0-1c-0.3-0.3-0.8-0.3-1,0l-1.6,1.6c-0.3,0.3-0.3,0.8,0,1   C91.8,3.5,92,3.5,92.2,3.5z"/><path d="M23.8,119.6c-0.3-0.3-0.8-0.3-1,0c-0.3,0.3-0.3,0.8,0,1l1.6,1.6c0.1,0.1,0.3,0.2,0.5,0.2c0.2,0,0.4-0.1,0.5-0.2   c0.3-0.3,0.3-0.8,0-1L23.8,119.6z"/><path d="M28.8,124.7c-0.3-0.3-0.8-0.3-1,0c-0.3,0.3-0.3,0.8,0,1l1.6,1.6c0.1,0.1,0.3,0.2,0.5,0.2c0.2,0,0.4-0.1,0.5-0.2   c0.3-0.3,0.3-0.8,0-1L28.8,124.7z"/><path d="M24.3,124.7l-1.6,1.6c-0.3,0.3-0.3,0.8,0,1c0.1,0.1,0.3,0.2,0.5,0.2c0.2,0,0.4-0.1,0.5-0.2l1.6-1.6c0.3-0.3,0.3-0.8,0-1   C25,124.4,24.6,124.4,24.3,124.7z"/><path d="M29.3,119.6l-1.6,1.6c-0.3,0.3-0.3,0.8,0,1c0.1,0.1,0.3,0.2,0.5,0.2s0.4-0.1,0.5-0.2l1.6-1.6c0.3-0.3,0.3-0.8,0-1   C30.1,119.3,29.6,119.3,29.3,119.6z"/><path d="M110.9,84.8c0.1,0.1,0.3,0.2,0.5,0.2c0.2,0,0.4-0.1,0.5-0.2c0.3-0.3,0.3-0.8,0-1l-1.6-1.6c-0.3-0.3-0.8-0.3-1,0   c-0.3,0.3-0.3,0.8,0,1L110.9,84.8z"/><path d="M114.4,88.3l1.6,1.6c0.1,0.1,0.3,0.2,0.5,0.2c0.2,0,0.4-0.1,0.5-0.2c0.3-0.3,0.3-0.8,0-1l-1.6-1.6c-0.3-0.3-0.8-0.3-1,0   C114.1,87.6,114.1,88,114.4,88.3z"/><path d="M109.3,89.9c0.1,0.1,0.3,0.2,0.5,0.2c0.2,0,0.4-0.1,0.5-0.2l1.6-1.6c0.3-0.3,0.3-0.8,0-1c-0.3-0.3-0.8-0.3-1,0l-1.6,1.6   C109.1,89.1,109.1,89.6,109.3,89.9z"/><path d="M114.9,85c0.2,0,0.4-0.1,0.5-0.2l1.6-1.6c0.3-0.3,0.3-0.8,0-1c-0.3-0.3-0.8-0.3-1,0l-1.6,1.6c-0.3,0.3-0.3,0.8,0,1   C114.6,84.9,114.7,85,114.9,85z"/><path d="M119.7,18.3c2,0,3.7-1.7,3.7-3.7s-1.7-3.7-3.7-3.7c-2,0-3.7,1.7-3.7,3.7S117.6,18.3,119.7,18.3z M119.7,12.4   c1.2,0,2.2,1,2.2,2.2c0,1.2-1,2.2-2.2,2.2c-1.2,0-2.2-1-2.2-2.2C117.5,13.4,118.5,12.4,119.7,12.4z"/><path d="M68.4,119c-2,0-3.7,1.7-3.7,3.7s1.7,3.7,3.7,3.7c2,0,3.7-1.7,3.7-3.7S70.5,119,68.4,119z M68.4,124.9c-1.2,0-2.2-1-2.2-2.2   c0-1.2,1-2.2,2.2-2.2c1.2,0,2.2,1,2.2,2.2C70.6,123.9,69.6,124.9,68.4,124.9z"/><path d="M9.9,69.8c-2,0-3.7,1.7-3.7,3.7c0,2,1.7,3.7,3.7,3.7c2,0,3.7-1.7,3.7-3.7C13.6,71.5,11.9,69.8,9.9,69.8z M9.9,75.7   c-1.2,0-2.2-1-2.2-2.2c0-1.2,1-2.2,2.2-2.2c1.2,0,2.2,1,2.2,2.2C12.1,74.7,11.1,75.7,9.9,75.7z"/><path d="M25.3,4.8H11.6c-0.4,0-0.7,0.3-0.7,0.7c0,0.4,0.3,0.7,0.7,0.7h13.7c0.4,0,0.7-0.3,0.7-0.7C26.1,5.1,25.7,4.8,25.3,4.8z"/><path d="M2.7,6.2h4.4c0.4,0,0.7-0.3,0.7-0.7c0-0.4-0.3-0.7-0.7-0.7H2.7c-0.4,0-0.7,0.3-0.7,0.7C1.9,5.9,2.3,6.2,2.7,6.2z"/><path d="M13,10.2c0-0.4-0.3-0.7-0.7-0.7H2.7c-0.4,0-0.7,0.3-0.7,0.7c0,0.4,0.3,0.7,0.7,0.7h9.6C12.7,11,13,10.6,13,10.2z"/><path d="M19.4,9.5h-3.1c-0.4,0-0.7,0.3-0.7,0.7c0,0.4,0.3,0.7,0.7,0.7h3.1c0.4,0,0.7-0.3,0.7-0.7C20.2,9.8,19.9,9.5,19.4,9.5z"/><path d="M116.4,121.9h-13.7c-0.4,0-0.7,0.3-0.7,0.7c0,0.4,0.3,0.7,0.7,0.7h13.7c0.4,0,0.7-0.3,0.7-0.7   C117.1,122.3,116.8,121.9,116.4,121.9z"/><path d="M125.3,121.9h-4.4c-0.4,0-0.7,0.3-0.7,0.7c0,0.4,0.3,0.7,0.7,0.7h4.4c0.4,0,0.7-0.3,0.7-0.7   C126.1,122.3,125.7,121.9,125.3,121.9z"/><path d="M115,118c0,0.4,0.3,0.7,0.7,0.7h9.6c0.4,0,0.7-0.3,0.7-0.7c0-0.4-0.3-0.7-0.7-0.7h-9.6C115.3,117.2,115,117.6,115,118z"/><path d="M107.8,118c0,0.4,0.3,0.7,0.7,0.7h3.1c0.4,0,0.7-0.3,0.7-0.7c0-0.4-0.3-0.7-0.7-0.7h-3.1   C108.1,117.2,107.8,117.6,107.8,118z"/><path d="M55.4,15.4h12.5c0.4,0,0.7-0.3,0.7-0.7S68.4,14,67.9,14H55.4c-0.4,0-0.7,0.3-0.7,0.7S55,15.4,55.4,15.4z"/><path d="M45.4,54.1h38.7c0.4,0,0.7-0.3,0.7-0.7c0-0.4-0.3-0.7-0.7-0.7H45.4c-0.4,0-0.7,0.3-0.7,0.7C44.6,53.8,45,54.1,45.4,54.1z"/><path d="M37.1,50c-1.9,0-3.4,1.5-3.4,3.4c0,1.9,1.5,3.4,3.4,3.4c1.9,0,3.4-1.5,3.4-3.4C40.5,51.5,39,50,37.1,50z M37.1,55.3   c-1.1,0-1.9-0.9-1.9-1.9c0-1.1,0.9-1.9,1.9-1.9c1.1,0,1.9,0.9,1.9,1.9C39,54.4,38.1,55.3,37.1,55.3z"/><path d="M45.4,66.2h34.2c0.4,0,0.7-0.3,0.7-0.7s-0.3-0.7-0.7-0.7H45.4c-0.4,0-0.7,0.3-0.7,0.7S45,66.2,45.4,66.2z"/><path d="M37.1,62.1c-1.9,0-3.4,1.5-3.4,3.4c0,1.9,1.5,3.4,3.4,3.4c1.9,0,3.4-1.5,3.4-3.4C40.5,63.6,39,62.1,37.1,62.1z M37.1,67.4   c-1.1,0-1.9-0.9-1.9-1.9c0-1.1,0.9-1.9,1.9-1.9c1.1,0,1.9,0.9,1.9,1.9C39,66.5,38.1,67.4,37.1,67.4z"/><path d="M45.4,78.3h9.2c0.4,0,0.7-0.3,0.7-0.7c0-0.4-0.3-0.7-0.7-0.7h-9.2c-0.4,0-0.7,0.3-0.7,0.7C44.6,78,45,78.3,45.4,78.3z"/><path d="M37.1,74.2c-1.9,0-3.4,1.5-3.4,3.4c0,1.9,1.5,3.4,3.4,3.4c1.9,0,3.4-1.5,3.4-3.4C40.5,75.7,39,74.2,37.1,74.2z M37.1,79.5   c-1.1,0-1.9-0.9-1.9-1.9c0-1.1,0.9-1.9,1.9-1.9c1.1,0,1.9,0.9,1.9,1.9C39,78.6,38.1,79.5,37.1,79.5z"/><path d="M45.4,90.4h14.7c0.4,0,0.7-0.3,0.7-0.7c0-0.4-0.3-0.7-0.7-0.7H45.4c-0.4,0-0.7,0.3-0.7,0.7C44.6,90.1,45,90.4,45.4,90.4z"/><path d="M37.1,86.3c-1.9,0-3.4,1.5-3.4,3.4c0,1.9,1.5,3.4,3.4,3.4c1.9,0,3.4-1.5,3.4-3.4C40.5,87.8,39,86.3,37.1,86.3z M37.1,91.6   c-1.1,0-1.9-0.9-1.9-1.9c0-1.1,0.9-1.9,1.9-1.9c1.1,0,1.9,0.9,1.9,1.9C39,90.7,38.1,91.6,37.1,91.6z"/><path d="M44.6,101.8c0,0.4,0.3,0.7,0.7,0.7h38.7c0.4,0,0.7-0.3,0.7-0.7s-0.3-0.7-0.7-0.7H45.4C45,101.1,44.6,101.4,44.6,101.8z"/><path d="M37.1,98.4c-1.9,0-3.4,1.5-3.4,3.4c0,1.9,1.5,3.4,3.4,3.4c1.9,0,3.4-1.5,3.4-3.4C40.5,99.9,39,98.4,37.1,98.4z M37.1,103.7   c-1.1,0-1.9-0.9-1.9-1.9c0-1.1,0.9-1.9,1.9-1.9c1.1,0,1.9,0.9,1.9,1.9C39,102.8,38.1,103.7,37.1,103.7z"/><path d="M90.4,27.3H65.3c-0.4,0-0.7,0.3-0.7,0.7c0,0.4,0.3,0.7,0.7,0.7h25.2c0.4,0,0.7-0.3,0.7-0.7C91.2,27.7,90.9,27.3,90.4,27.3z   "/><path d="M90.4,33.7H56.1c-0.4,0-0.7,0.3-0.7,0.7c0,0.4,0.3,0.7,0.7,0.7h34.4c0.4,0,0.7-0.3,0.7-0.7C91.2,34,90.9,33.7,90.4,33.7z"/><path d="M48.2,28.6h-5l-1.5-4.7c-0.1-0.3-0.4-0.5-0.7-0.5c-0.3,0-0.6,0.2-0.7,0.5l-1.5,4.7h-5c-0.3,0-0.6,0.2-0.7,0.5   c-0.1,0.3,0,0.6,0.3,0.8l4,2.9l-1.5,4.7c-0.1,0.3,0,0.6,0.3,0.8c0.3,0.2,0.6,0.2,0.9,0l4-2.9l4,2.9c0.1,0.1,0.3,0.1,0.4,0.1   s0.3,0,0.4-0.1c0.3-0.2,0.4-0.5,0.3-0.8l-1.5-4.7l4-2.9c0.3-0.2,0.4-0.5,0.3-0.8C48.8,28.8,48.5,28.6,48.2,28.6z M43.3,32   c-0.3,0.2-0.4,0.5-0.3,0.8l1,3.1L41.4,34c-0.3-0.2-0.6-0.2-0.9,0l-2.6,1.9l1-3.1c0.1-0.3,0-0.6-0.3-0.8L36,30.1h3.2   c0.3,0,0.6-0.2,0.7-0.5l1-3.1l1,3.1c0.1,0.3,0.4,0.5,0.7,0.5h3.2L43.3,32z"/></g>></svg>
