<svg xmlns="http://www.w3.org/2000/svg" xmlns:xlink="http://www.w3.org/1999/xlink" version="1.1" x="0px" y="0px" viewBox="0 0 128 160" enable-background="new 0 0 128 128" xml:space="preserve"><g><path d="M126.7,114.3H89.2l-3.4-12c3-2.5,4.2-6.6,3-10.4c-1.1-3.6-4.2-6.2-7.9-6.7L75.4,66h12.2c0.4,0,0.8-0.3,0.8-0.8   s-0.3-0.8-0.8-0.8H74.9l-9-31.6c1.3-1.9,2-4.2,2-6.6c0-5.8-4.2-10.7-9.7-11.7V3.2c0-1.1-0.9-2.1-2.1-2.1h-0.3   c-1.1,0-2.1,0.9-2.1,2.1v11.4c-5.5,1.1-9.7,5.9-9.7,11.7c0,2.4,0.7,4.6,2,6.6l-2.2,7.8L14,11c0,0-0.1-0.1-0.1-0.1   c-0.1-0.1-0.2-0.2-0.4-0.3L3.6,6.9C3.3,6.7,3,6.8,2.8,7C2.6,7.2,2.5,7.5,2.6,7.8l3.8,9.9c0.1,0.2,0.2,0.3,0.3,0.4   c0,0,0,0.1,0.1,0.1l33.7,33.7l-3.6,12.6H24.3c-0.4,0-0.8,0.3-0.8,0.8s0.3,0.8,0.8,0.8h12.2l-5.5,19.2c-3.7,0.5-6.8,3.1-7.9,6.7   c-1.2,3.8,0,7.9,3,10.4l-3.7,12.9c-0.1,0.4,0.1,0.8,0.5,0.9l1.8,0.6l-1.2,3.7c-0.1,0.4,0.1,0.8,0.5,0.9c0.1,0,0.2,0,0.2,0   c0.3,0,0.6-0.2,0.7-0.5l1.2-3.7l1.8,0.6c0.1,0,0.2,0,0.2,0c0.3,0,0.6-0.2,0.7-0.5l4.3-12.7c3.9-0.4,7.2-3,8.4-6.8c0,0,0,0,0,0   c1.1-3.6,0.1-7.5-2.7-10L46.3,66h7.3v4.3c0,1.2,1,2.3,2.3,2.3c1.2,0,2.3-1,2.3-2.3V66h7.3l7.4,21.7c-2.7,2.5-3.8,6.4-2.7,10   c1.2,3.8,4.5,6.4,8.4,6.8l3.3,9.8H49.6c-0.4,0-0.8,0.3-0.8,0.8v11c0,0.4,0.3,0.8,0.8,0.8h77.1c0.4,0,0.8-0.3,0.8-0.8v-11   C127.5,114.7,127.2,114.3,126.7,114.3z M79.1,85.1c-0.3,0-0.7,0-1,0.1c-0.1,0-0.2,0-0.3,0c-0.4,0.1-0.8,0.2-1.2,0.3   c-0.4,0.1-0.8,0.3-1.1,0.4c-0.1,0-0.2,0.1-0.3,0.1c-0.3,0.2-0.6,0.3-0.9,0.5c0,0-0.1,0-0.1,0.1L57.6,38.2c0.1,0,0.1,0,0.2,0   c0.1,0,0.3,0,0.4-0.1c0.3-0.1,0.6-0.1,0.8-0.2c0.1,0,0.2-0.1,0.4-0.1c0.3-0.1,0.7-0.2,1-0.4c0,0,0.1,0,0.1-0.1   c0.4-0.2,0.7-0.3,1.1-0.5c0.1-0.1,0.2-0.1,0.3-0.2c0.2-0.1,0.5-0.3,0.7-0.5c0.1-0.1,0.2-0.2,0.3-0.2c0.2-0.2,0.5-0.4,0.7-0.6   c0.1-0.1,0.2-0.1,0.2-0.2c0.3-0.3,0.6-0.5,0.8-0.8l14.5,50.7C79.2,85.1,79.2,85.1,79.1,85.1z M55.2,14.4V3.2c0-0.3,0.3-0.6,0.6-0.6   h0.3c0.3,0,0.6,0.3,0.6,0.6v11.1H55.2z M55.9,15.9c5.8,0,10.5,4.7,10.5,10.5c0,2.2-0.7,4.3-1.9,6c-1.9,2.6-4.8,4.3-8,4.4   c-0.4,0-0.8,0-1.2,0c-0.4,0-0.8-0.1-1.2-0.1c-2.7-0.5-5.1-2-6.8-4.3c-1.2-1.8-1.9-3.8-1.9-6C45.4,20.6,50.1,15.9,55.9,15.9z    M4.6,8.9l7.6,2.9l-4.7,4.7L4.6,8.9z M8.4,17.7l5.1-5.1l29.8,29.8l-0.9,3.1l-1.8-1.8c-0.3-0.3-0.8-0.3-1.1,0   c-0.3,0.3-0.3,0.8,0,1.1l2.4,2.4l-0.9,3.1L8.4,17.7z M41.9,52.3C41.9,52.3,41.9,52.3,41.9,52.3c0.2-0.2,0.2-0.4,0.2-0.7l1.1-4   c0,0,0.1,0,0.1-0.1c0.2-0.2,0.3-0.5,0.2-0.8l1.1-4c0,0,0,0,0,0c0.2-0.2,0.2-0.4,0.2-0.7l2.2-7.7c0.3,0.3,0.5,0.6,0.8,0.8   c0.1,0.1,0.2,0.1,0.2,0.2c0.2,0.2,0.5,0.4,0.7,0.6c0.1,0.1,0.2,0.2,0.3,0.2c0.2,0.2,0.5,0.3,0.7,0.5c0.1,0.1,0.2,0.1,0.3,0.2   c0.3,0.2,0.7,0.4,1.1,0.5c0.1,0,0.1,0,0.2,0.1c0.3,0.1,0.6,0.2,0.9,0.3c0.1,0,0.3,0.1,0.4,0.1c0.3,0.1,0.5,0.1,0.8,0.2   c0.1,0,0.3,0.1,0.4,0.1c0.1,0,0.1,0,0.2,0L37.7,86.7c0,0-0.1,0-0.1-0.1c-0.3-0.2-0.6-0.3-0.9-0.5c-0.1,0-0.2-0.1-0.3-0.1   c-0.4-0.2-0.7-0.3-1.1-0.4c-0.4-0.1-0.8-0.2-1.2-0.3c-0.1,0-0.2,0-0.3-0.1c-0.3,0-0.7-0.1-1-0.1c-0.1,0-0.1,0-0.2,0L41.9,52.3z    M27.7,116l-3.6-1.1l3.3-11.6c0,0,0.1,0,0.1,0.1c0.2,0.1,0.5,0.3,0.7,0.4c0.1,0,0.2,0.1,0.2,0.1c0.3,0.1,0.6,0.3,1,0.4   c0,0,0.1,0,0.1,0c0.4,0.1,0.8,0.2,1.2,0.3c0.1,0,0.3,0,0.4,0.1c0.2,0,0.3,0.1,0.5,0.1L27.7,116z M40.2,97.3c-1,3.3-4.1,5.6-7.5,5.8   c0,0,0,0,0,0c-0.1,0-0.3,0-0.4,0c-0.3,0-0.6,0-1-0.1c-0.5-0.1-0.9-0.2-1.3-0.3c-0.9-0.3-1.7-0.7-2.5-1.3c0,0,0,0,0,0   c-2.8-2.1-3.9-5.7-2.9-9c1-3.2,3.8-5.4,7.1-5.7c0.3,0,0.5,0,0.8,0c0.4,0,0.7,0,1.1,0.1c0.1,0,0.2,0,0.3,0c0.4,0.1,0.7,0.1,1.1,0.3   c0.5,0.2,1,0.4,1.5,0.6c0,0,0.1,0.1,0.1,0.1c0.2,0.1,0.4,0.3,0.6,0.4c0.2,0.1,0.4,0.3,0.6,0.4l0,0c0,0,0,0,0,0   C40.2,90.7,41.2,94.1,40.2,97.3z M56.7,70.4c0,0.4-0.3,0.7-0.7,0.7c-0.4,0-0.7-0.3-0.7-0.7V60.2c0-0.4,0.3-0.7,0.7-0.7   c0.2,0,0.4,0.1,0.5,0.2c0.1,0.1,0.2,0.3,0.2,0.5V70.4z M58.2,64.5v-4.3c0-0.6-0.2-1.2-0.7-1.6c-0.4-0.4-1-0.7-1.6-0.7   c-1.2,0-2.3,1-2.3,2.3v4.3h-6.8l8.9-26.2c0,0,0.1,0,0.1,0c0,0,0.1,0,0.1,0L65,64.5H58.2z M71.6,97.3c-1-3.2,0-6.6,2.6-8.8   c0.8-0.7,1.8-1.2,2.8-1.5c0.4-0.1,0.7-0.2,1.1-0.3c0.1,0,0.2,0,0.2,0c0.4-0.1,0.7-0.1,1.1-0.1c0.2,0,0.5,0,0.7,0c0,0,0,0,0,0   c3.3,0.3,6.1,2.5,7.1,5.7c1,3.3-0.1,7-2.9,9c0,0,0,0,0,0c0,0-0.1,0-0.1,0.1c-0.3,0.2-0.7,0.5-1,0.7c-0.1,0-0.1,0-0.2,0.1   c-0.4,0.2-0.7,0.3-1.1,0.5c-0.2,0.1-0.4,0.1-0.6,0.2c-0.6,0.1-1.3,0.2-1.9,0.2c-0.1,0-0.2,0-0.2,0c0,0,0,0,0,0   C75.7,102.9,72.7,100.6,71.6,97.3z M80.7,104.5c0.1,0,0.3,0,0.4,0c0.4-0.1,0.8-0.2,1.2-0.3c0,0,0.1,0,0.1,0   c0.3-0.1,0.6-0.2,0.9-0.4c0.1,0,0.2-0.1,0.3-0.1c0.2-0.1,0.5-0.2,0.7-0.3c0.1,0,0.1-0.1,0.2-0.1l3.3,11.6c0,0,0,0,0,0l-3.6,1.1   l-3.9-11.5C80.4,104.5,80.5,104.5,80.7,104.5z M126,125.3h-8.7v-3.7c0-0.4-0.3-0.8-0.8-0.8c-0.4,0-0.8,0.3-0.8,0.8v3.7h-9.8v-5   c0-0.4-0.3-0.8-0.8-0.8s-0.8,0.3-0.8,0.8v5h-9.8v-3.7c0-0.4-0.3-0.8-0.8-0.8c-0.4,0-0.8,0.3-0.8,0.8v3.7h-9.8v-5   c0-0.4-0.3-0.8-0.8-0.8c-0.4,0-0.8,0.3-0.8,0.8v5h-9.8v-3.7c0-0.4-0.3-0.8-0.8-0.8c-0.4,0-0.8,0.3-0.8,0.8v3.7h-9.8v-5   c0-0.4-0.3-0.8-0.8-0.8c-0.4,0-0.8,0.3-0.8,0.8v5h-8.7v-9.5h32.1l0.5,1.4c0.1,0.3,0.4,0.5,0.7,0.5c0.1,0,0.1,0,0.2,0l1.8-0.6   l1.2,3.7c0.1,0.3,0.4,0.5,0.7,0.5c0.1,0,0.2,0,0.2,0c0.4-0.1,0.6-0.5,0.5-0.9l-1.2-3.7l1.8-0.6c0.2,0,0.3-0.1,0.4-0.3H126V125.3z"/><path d="M13.2,68.1c-0.4,0-0.8,0.3-0.8,0.8v11.6c0,0.4,0.3,0.8,0.8,0.8c0.4,0,0.8-0.3,0.8-0.8V68.8C14,68.4,13.7,68.1,13.2,68.1z"/><path d="M13.2,83.5c-0.4,0-0.8,0.3-0.8,0.8V88c0,0.4,0.3,0.8,0.8,0.8c0.4,0,0.8-0.3,0.8-0.8v-3.8C14,83.8,13.7,83.5,13.2,83.5z"/><path d="M5.4,105.6c-0.3-0.3-0.8-0.3-1.1,0c-0.3,0.3-0.3,0.8,0,1.1l1.6,1.6c0.1,0.1,0.3,0.2,0.5,0.2c0.2,0,0.4-0.1,0.5-0.2   c0.3-0.3,0.3-0.8,0-1.1L5.4,105.6z"/><path d="M10.6,110.7c-0.3-0.3-0.8-0.3-1.1,0c-0.3,0.3-0.3,0.8,0,1.1l1.6,1.6c0.1,0.1,0.3,0.2,0.5,0.2c0.2,0,0.4-0.1,0.5-0.2   c0.3-0.3,0.3-0.8,0-1.1L10.6,110.7z"/><path d="M5.9,110.7l-1.6,1.6c-0.3,0.3-0.3,0.8,0,1.1c0.1,0.1,0.3,0.2,0.5,0.2c0.2,0,0.4-0.1,0.5-0.2l1.6-1.6c0.3-0.3,0.3-0.8,0-1.1   C6.7,110.4,6.2,110.4,5.9,110.7z"/><path d="M11.1,105.6l-1.6,1.6c-0.3,0.3-0.3,0.8,0,1.1c0.1,0.1,0.3,0.2,0.5,0.2c0.2,0,0.4-0.1,0.5-0.2l1.6-1.6   c0.3-0.3,0.3-0.8,0-1.1C11.9,105.3,11.4,105.3,11.1,105.6z"/><path d="M101.8,12.3c0.1,0.1,0.3,0.2,0.5,0.2c0.2,0,0.4-0.1,0.5-0.2c0.3-0.3,0.3-0.8,0-1.1l-1.6-1.6c-0.3-0.3-0.8-0.3-1.1,0   c-0.3,0.3-0.3,0.8,0,1.1L101.8,12.3z"/><path d="M107,17.4c0.1,0.1,0.3,0.2,0.5,0.2c0.2,0,0.4-0.1,0.5-0.2c0.3-0.3,0.3-0.8,0-1.1l-1.6-1.6c-0.3-0.3-0.8-0.3-1.1,0   c-0.3,0.3-0.3,0.8,0,1.1L107,17.4z"/><path d="M100.8,17.6c0.2,0,0.4-0.1,0.5-0.2l1.6-1.6c0.3-0.3,0.3-0.8,0-1.1c-0.3-0.3-0.8-0.3-1.1,0l-1.6,1.6c-0.3,0.3-0.3,0.8,0,1.1   C100.4,17.6,100.6,17.6,100.8,17.6z"/><path d="M105.9,12.5c0.2,0,0.4-0.1,0.5-0.2l1.6-1.6c0.3-0.3,0.3-0.8,0-1.1c-0.3-0.3-0.8-0.3-1.1,0l-1.6,1.6c-0.3,0.3-0.3,0.8,0,1.1   C105.5,12.4,105.7,12.5,105.9,12.5z"/><path d="M91,74.3l-1.6-1.6c-0.3-0.3-0.8-0.3-1.1,0c-0.3,0.3-0.3,0.8,0,1.1l1.6,1.6c0.1,0.1,0.3,0.2,0.5,0.2c0.2,0,0.4-0.1,0.5-0.2   C91.3,75.1,91.3,74.6,91,74.3z"/><path d="M93.5,78.9l1.6,1.6c0.1,0.1,0.3,0.2,0.5,0.2c0.2,0,0.4-0.1,0.5-0.2c0.3-0.3,0.3-0.8,0-1.1l-1.6-1.6c-0.3-0.3-0.8-0.3-1.1,0   C93.2,78.2,93.2,78.7,93.5,78.9z"/><path d="M89.9,77.9l-1.6,1.6c-0.3,0.3-0.3,0.8,0,1.1c0.1,0.1,0.3,0.2,0.5,0.2c0.2,0,0.4-0.1,0.5-0.2l1.6-1.6c0.3-0.3,0.3-0.8,0-1.1   C90.7,77.6,90.2,77.6,89.9,77.9z"/><path d="M94,75.6c0.2,0,0.4-0.1,0.5-0.2l1.6-1.6c0.3-0.3,0.3-0.8,0-1.1c-0.3-0.3-0.8-0.3-1.1,0l-1.6,1.6c-0.3,0.3-0.3,0.8,0,1.1   C93.6,75.5,93.8,75.6,94,75.6z"/><path d="M30.3,6.3c0.1,0.1,0.3,0.2,0.5,0.2c0.2,0,0.4-0.1,0.5-0.2c0.3-0.3,0.3-0.8,0-1.1l-1.6-1.6c-0.3-0.3-0.8-0.3-1.1,0   c-0.3,0.3-0.3,0.8,0,1.1L30.3,6.3z"/><path d="M35.5,11.5c0.1,0.1,0.3,0.2,0.5,0.2c0.2,0,0.4-0.1,0.5-0.2c0.3-0.3,0.3-0.8,0-1.1L35,8.8c-0.3-0.3-0.8-0.3-1.1,0   c-0.3,0.3-0.3,0.8,0,1.1L35.5,11.5z"/><path d="M29.3,11.7c0.2,0,0.4-0.1,0.5-0.2l1.6-1.6c0.3-0.3,0.3-0.8,0-1.1c-0.3-0.3-0.8-0.3-1.1,0l-1.6,1.6c-0.3,0.3-0.3,0.8,0,1.1   C28.9,11.6,29.1,11.7,29.3,11.7z"/><path d="M34.4,6.5c0.2,0,0.4-0.1,0.5-0.2l1.6-1.6c0.3-0.3,0.3-0.8,0-1.1c-0.3-0.3-0.8-0.3-1.1,0l-1.6,1.6c-0.3,0.3-0.3,0.8,0,1.1   C34,6.5,34.2,6.5,34.4,6.5z"/><path d="M42.8,108.6c-1.9,0-3.5,1.6-3.5,3.5s1.6,3.5,3.5,3.5s3.5-1.6,3.5-3.5S44.7,108.6,42.8,108.6z M42.8,114c-1.1,0-2-0.9-2-2   c0-1.1,0.9-2,2-2c1.1,0,2,0.9,2,2C44.8,113.1,43.9,114,42.8,114z"/><path d="M74.4,8.1c1.9,0,3.5-1.6,3.5-3.5c0-1.9-1.6-3.5-3.5-3.5c-1.9,0-3.5,1.6-3.5,3.5C70.9,6.5,72.5,8.1,74.4,8.1z M74.4,2.7   c1.1,0,2,0.9,2,2c0,1.1-0.9,2-2,2c-1.1,0-2-0.9-2-2C72.4,3.5,73.3,2.7,74.4,2.7z"/><path d="M14.6,44.9c0-0.4-0.3-0.8-0.8-0.8H1.3c-0.4,0-0.8,0.3-0.8,0.8s0.3,0.8,0.8,0.8h12.6C14.2,45.7,14.6,45.3,14.6,44.9z"/><path d="M22,45.7c0.4,0,0.8-0.3,0.8-0.8s-0.3-0.8-0.8-0.8h-4.1c-0.4,0-0.8,0.3-0.8,0.8s0.3,0.8,0.8,0.8H22z"/><path d="M22.8,49.2c0-0.4-0.3-0.8-0.8-0.8h-8.8c-0.4,0-0.8,0.3-0.8,0.8c0,0.4,0.3,0.8,0.8,0.8H22C22.4,50,22.8,49.6,22.8,49.2z"/><path d="M6.6,48.5c-0.4,0-0.8,0.3-0.8,0.8c0,0.4,0.3,0.8,0.8,0.8h2.8c0.4,0,0.8-0.3,0.8-0.8c0-0.4-0.3-0.8-0.8-0.8H6.6z"/><path d="M112.2,97.9H99.7c-0.4,0-0.8,0.3-0.8,0.8c0,0.4,0.3,0.8,0.8,0.8h12.6c0.4,0,0.8-0.3,0.8-0.8   C113,98.3,112.6,97.9,112.2,97.9z"/><path d="M120.4,99.5c0.4,0,0.8-0.3,0.8-0.8c0-0.4-0.3-0.8-0.8-0.8h-4.1c-0.4,0-0.8,0.3-0.8,0.8c0,0.4,0.3,0.8,0.8,0.8H120.4z"/><path d="M110.9,103c0,0.4,0.3,0.8,0.8,0.8h8.8c0.4,0,0.8-0.3,0.8-0.8c0-0.4-0.3-0.8-0.8-0.8h-8.8   C111.2,102.3,110.9,102.6,110.9,103z"/><path d="M105.1,102.3c-0.4,0-0.8,0.3-0.8,0.8c0,0.4,0.3,0.8,0.8,0.8h2.8c0.4,0,0.8-0.3,0.8-0.8c0-0.4-0.3-0.8-0.8-0.8H105.1z"/><path d="M26.3,29.5c-0.3-0.3-0.8-0.3-1.1,0c-0.3,0.3-0.3,0.8,0,1.1l2.8,2.8c0.1,0.1,0.3,0.2,0.5,0.2c0.2,0,0.4-0.1,0.5-0.2   c0.3-0.3,0.3-0.8,0-1.1L26.3,29.5z"/><path d="M19.2,22.4c-0.3-0.3-0.8-0.3-1.1,0s-0.3,0.8,0,1.1l2.8,2.8c0.1,0.1,0.3,0.2,0.5,0.2c0.2,0,0.4-0.1,0.5-0.2   c0.3-0.3,0.3-0.8,0-1.1L19.2,22.4z"/><path d="M33.4,36.6c-0.3-0.3-0.8-0.3-1.1,0c-0.3,0.3-0.3,0.8,0,1.1l2.8,2.8c0.1,0.1,0.3,0.2,0.5,0.2c0.2,0,0.4-0.1,0.5-0.2   c0.3-0.3,0.3-0.8,0-1.1L33.4,36.6z"/><path d="M81.6,100.5c0.1,0,0.2,0,0.3-0.1c2.4-1,3.8-3.4,3.7-6c0-0.7-0.2-1.4-0.5-2c-0.3-0.6-0.7-1.2-1.1-1.7   c-0.3-0.3-0.8-0.3-1.1,0c-0.3,0.3-0.3,0.8,0,1.1c0.4,0.4,0.6,0.8,0.9,1.3c0.2,0.5,0.3,1,0.4,1.5c0.1,1.9-1,3.8-2.8,4.5   c-0.4,0.2-0.6,0.6-0.4,1C81.1,100.3,81.3,100.5,81.6,100.5z"/><path d="M30.5,99.1c-1.8-0.8-2.9-2.6-2.8-4.5c0-0.5,0.2-1,0.4-1.5c0.2-0.5,0.5-0.9,0.9-1.3c0.3-0.3,0.3-0.8,0-1.1   c-0.3-0.3-0.8-0.3-1.1,0c-0.5,0.5-0.9,1.1-1.1,1.7c-0.3,0.6-0.4,1.3-0.5,2c-0.2,2.6,1.3,5,3.7,6c0.1,0,0.2,0.1,0.3,0.1   c0.3,0,0.6-0.2,0.7-0.5C31.1,99.7,30.9,99.2,30.5,99.1z"/><path d="M55.9,20c1.8,0,3.5,0.8,4.7,2.1c0.1,0.2,0.4,0.3,0.6,0.3c0.2,0,0.4-0.1,0.5-0.2c0.3-0.3,0.3-0.8,0.1-1.1   c-1.5-1.7-3.6-2.6-5.8-2.6h-0.1c-0.4,0-0.7,0.3-0.7,0.8C55.1,19.7,55.5,20,55.9,20z"/><path d="M48.9,27.1c0.4,0,0.8-0.4,0.8-0.8c0-1.8,0.8-3.5,2.1-4.7c0.3-0.3,0.3-0.8,0.1-1.1c-0.3-0.3-0.8-0.3-1.1-0.1   c-1.7,1.5-2.6,3.6-2.6,5.9v0C48.1,26.8,48.4,27.1,48.9,27.1z"/><path d="M55.9,32.6c-1.8,0-3.5-0.8-4.7-2.2c-0.3-0.3-0.7-0.3-1.1-0.1c-0.3,0.3-0.3,0.7-0.1,1.1c1.5,1.7,3.6,2.7,5.9,2.7h0   c0.4,0,0.7-0.3,0.7-0.8C56.7,33,56.3,32.6,55.9,32.6z"/><path d="M60,31.1c-0.3,0.3-0.3,0.7-0.1,1.1c0.1,0.2,0.4,0.3,0.6,0.3c0.2,0,0.4-0.1,0.5-0.2c1.7-1.5,2.7-3.6,2.7-5.9   c0,0,0-0.1,0-0.1c0-0.4-0.3-0.7-0.8-0.7c0,0,0,0,0,0c-0.4,0-0.7,0.4-0.7,0.8C62.2,28.2,61.4,29.9,60,31.1z"/><path d="M119.6,34.8H86.1c-0.3,0-0.6,0.2-0.7,0.4c-0.1,0.3-0.1,0.6,0.1,0.8L119,74.9c0.1,0.2,0.4,0.3,0.6,0.3c0.1,0,0.2,0,0.3,0   c0.3-0.1,0.5-0.4,0.5-0.7V35.6C120.3,35.2,120,34.8,119.6,34.8z M118.8,72.4L87.7,36.3h31.1V72.4z"/><path d="M126.7,28.3h-7.2c0,0,0,0,0,0c0,0,0,0,0,0h-6.2c0,0,0,0,0,0c0,0,0,0,0,0H107c0,0,0,0,0,0c0,0,0,0,0,0h-6.2c0,0,0,0,0,0   c0,0,0,0,0,0h-6.2c0,0,0,0,0,0c0,0,0,0,0,0h-6.2c0,0,0,0,0,0c0,0,0,0,0,0H82c0,0,0,0,0,0c0,0,0,0,0,0H71.6c-0.3,0-0.6,0.2-0.7,0.4   c-0.1,0.3-0.1,0.6,0.1,0.8l55.2,63.6c0.1,0.2,0.4,0.3,0.6,0.3c0.1,0,0.2,0,0.3,0c0.3-0.1,0.5-0.4,0.5-0.7V29   C127.5,28.6,127.2,28.3,126.7,28.3z M73.2,29.8h8v2.3c0,0.4,0.3,0.8,0.8,0.8s0.8-0.3,0.8-0.8v-2.3h4.7V31c0,0.4,0.3,0.8,0.8,0.8   c0.4,0,0.8-0.3,0.8-0.8v-1.2h4.7v2.3c0,0.4,0.3,0.8,0.8,0.8c0.4,0,0.8-0.3,0.8-0.8v-2.3h4.7V31c0,0.4,0.3,0.8,0.8,0.8   c0.4,0,0.8-0.3,0.8-0.8v-1.2h4.7v2.3c0,0.4,0.3,0.8,0.8,0.8c0.4,0,0.8-0.3,0.8-0.8v-2.3h4.7V31c0,0.4,0.3,0.8,0.8,0.8   c0.4,0,0.8-0.3,0.8-0.8v-1.2h4.7v2.3c0,0.4,0.3,0.8,0.8,0.8c0.4,0,0.8-0.3,0.8-0.8v-2.3h5.7v7.1h-2.3c-0.4,0-0.8,0.3-0.8,0.8   c0,0.4,0.3,0.8,0.8,0.8h2.3v4.7h-1.2c-0.4,0-0.8,0.3-0.8,0.8s0.3,0.8,0.8,0.8h1.2v4.7h-2.3c-0.4,0-0.8,0.3-0.8,0.8   c0,0.4,0.3,0.8,0.8,0.8h2.3v4.7h-1.2c-0.4,0-0.8,0.3-0.8,0.8c0,0.4,0.3,0.8,0.8,0.8h1.2v4.7h-2.3c-0.4,0-0.8,0.3-0.8,0.8   s0.3,0.8,0.8,0.8h2.3v4.7h-1.2c-0.4,0-0.8,0.3-0.8,0.8c0,0.4,0.3,0.8,0.8,0.8h1.2v4.7h-2.3c-0.4,0-0.8,0.3-0.8,0.8   c0,0.4,0.3,0.8,0.8,0.8h2.3v14.7L73.2,29.8z"/></g>></svg>
