<?xml version="1.0" encoding="UTF-8" standalone="no"?>
<svg width="130px" height="30px" viewBox="0 0 130 30" version="1.1" xmlns="http://www.w3.org/2000/svg" xmlns:xlink="http://www.w3.org/1999/xlink">
    <!-- Generator: Sketch 39.1 (31720) - http://www.bohemiancoding.com/sketch -->
    <title>logo_new_ru</title>
    <desc>Created with Sketch.</desc>
    <defs></defs>
    <g id="Page-1" stroke="none" stroke-width="1" fill="none" fill-rule="evenodd">
        <g id="01_Main_Desktop_change" transform="translate(-24.000000, -35.000000)" fill="#FFFFFF">
            <g id="меню">
                <path d="M34.599,39.145 L32.987,39.145 C32.4909975,39.145 32.0105023,39.2483323 31.5455,39.455 C31.0804977,39.6616677 30.6671685,39.9923311 30.3055,40.447 C29.9438315,40.9016689 29.6545011,41.4854964 29.4375,42.1985 C29.2204989,42.9115036 29.112,43.763995 29.112,44.756 C29.112,45.7273382 29.2308321,46.54883 29.4685,47.2205 C29.7061679,47.89217 30.0213314,48.4449978 30.414,48.879 C30.8066686,49.3130022 31.2509975,49.6281657 31.747,49.8245 C32.2430025,50.0208343 32.759664,50.119 33.297,50.119 L34.599,50.119 L34.599,39.145 Z M28.399,61 L25.578,61 L30.6,51.731 C29.1326593,51.0283298 28.0838365,50.0931725 27.4535,48.9255 C26.8231635,47.7578275 26.508,46.3680081 26.508,44.756 C26.508,43.5159938 26.6836649,42.4206714 27.035,41.47 C27.3863351,40.5193286 27.8616637,39.7185033 28.461,39.0675 C29.0603363,38.4164967 29.7578294,37.9256683 30.5535,37.595 C31.3491706,37.2643317 32.1913289,37.099 33.08,37.099 L37.048,37.099 L37.048,61 L34.599,61 L34.599,52.134 L32.987,52.134 L28.399,61 Z M67.986,46.585 C67.6346649,46.585 67.324668,46.7089988 67.056,46.957 C66.787332,47.2050012 66.5600009,47.5511644 66.374,47.9955 C66.1879991,48.4398356 66.0433338,48.9616637 65.94,49.561 C65.8366661,50.1603363 65.7643335,50.8113298 65.723,51.514 L69.815,51.514 L69.815,51.173 C69.815,51.0696661 69.8098334,50.9560006 69.7995,50.832 C69.7891666,50.7079994 69.784,50.5736674 69.784,50.429 C69.7013329,49.2096606 69.5050015,48.26417 69.195,47.5925 C68.8849984,46.92083 68.4820025,46.585 67.986,46.585 L67.986,46.585 Z M87.33,53.033 C87.33,54.9136761 87.6193304,56.391328 88.198,57.466 C88.7766696,58.540672 89.6653273,59.078 90.864,59.078 C91.3186689,59.078 91.7836643,59.010834 92.259,58.8765 C92.7343357,58.742166 93.1166652,58.6130006 93.406,58.489 L93.654,60.256 C93.1786643,60.5453348 92.6465029,60.7984989 92.0575,61.0155 C91.4684971,61.2325011 90.8020037,61.341 90.058,61.341 C88.4666587,61.341 87.1801716,60.6796733 86.1985,59.357 C85.2168284,58.0343267 84.726,56.1330124 84.726,53.653 C84.726,52.2889932 84.8654986,51.0490056 85.1445,49.933 C85.4235014,48.8169944 85.8006643,47.8663373 86.276,47.081 C86.7513357,46.2956627 87.3196634,45.6860022 87.981,45.252 C88.6423366,44.8179978 89.3553295,44.601 90.12,44.601 C90.8020034,44.601 91.4168306,44.6939991 91.9645,44.88 C92.5121694,45.0660009 93.0029978,45.3139984 93.437,45.624 L92.166,47.763 C91.8766652,47.4323317 91.5511685,47.1533345 91.1895,46.926 C90.8278315,46.6986655 90.4610019,46.585 90.089,46.585 C89.6549978,46.585 89.2623351,46.7709981 88.911,47.143 C88.5596649,47.5150019 88.2703345,48.0006637 88.043,48.6 C87.8156655,49.1993363 87.6400006,49.8864961 87.516,50.6615 C87.3919994,51.4365039 87.33,52.226996 87.33,53.033 L87.33,53.033 Z M57.88,46.988 L55.555,46.988 L55.555,47.298 C55.555,48.2693382 55.5240003,49.2974946 55.462,50.3825 C55.3999997,51.4675054 55.2863342,52.5318281 55.121,53.5755 C54.9556658,54.6191719 54.738668,55.6059953 54.47,56.536 C54.201332,57.4660046 53.8603354,58.2719966 53.447,58.954 L57.88,58.954 L57.88,46.988 Z M84.137,60.969 L81.378,60.969 L77.565,53.095 L77.286,52.754 L77.286,60.969 L74.806,60.969 L74.806,45.004 L77.286,45.004 L77.286,52.258 L77.565,51.948 L80.944,45.004 L83.579,45.004 L79.673,52.196 L84.137,60.969 Z M48.89,45.004 L48.89,60.969 L46.441,60.969 L46.441,53.343 L42.783,53.343 L42.783,60.969 L40.303,60.969 L40.303,45.004 L42.783,45.004 L42.783,51.297 L46.441,51.297 L46.441,45.004 L48.89,45.004 Z M72.295,60.256 C71.7783307,60.5453348 71.2048365,60.7984989 70.5745,61.0155 C69.9441635,61.2325011 69.2363373,61.341 68.451,61.341 C66.8389919,61.341 65.5473382,60.66934 64.576,59.326 C63.6046618,57.9826599 63.119,56.0916789 63.119,53.653 C63.119,52.4749941 63.2171657,51.3435054 63.4135,50.2585 C63.6098343,49.1734946 63.909498,48.2125042 64.3125,47.3755 C64.715502,46.5384958 65.2269969,45.8668359 65.847,45.3605 C66.4670031,44.8541641 67.2109957,44.601 68.079,44.601 C69.3603397,44.601 70.3936627,45.2416603 71.179,46.523 C71.9643373,47.8043397 72.357,49.6953208 72.357,52.196 L72.357,53.56 L65.692,53.56 C65.692,55.2960087 65.9864971,56.6496618 66.5755,57.621 C67.1645029,58.5923382 68.089327,59.078 69.35,59.078 C69.8253357,59.078 70.3161641,59.010834 70.8225,58.8765 C71.3288359,58.742166 71.7266652,58.6130006 72.016,58.489 L72.295,60.256 Z M61.569,64.1 L59.368,64.1 L59.368,60.969 L52.517,60.969 L52.517,64.1 L50.316,64.1 L50.316,58.954 L51.277,58.954 C51.7730025,58.0239953 52.1604986,57.021672 52.4395,55.947 C52.7185014,54.872328 52.9303326,53.7873388 53.075,52.692 C53.2196674,51.5966612 53.3074998,50.511672 53.3385,49.437 C53.3695002,48.362328 53.385,47.3393382 53.385,46.368 L53.385,45.004 L60.329,45.004 L60.329,58.954 L61.569,58.954 L61.569,64.1 Z M102.799,49.623 L102.799,61 L101.311,61 L101.311,39.455 L102.799,39.455 L102.799,49.499 L109.278,39.455 L110.704,39.455 L104.318,49.375 L111.262,61 L109.588,61 L102.799,49.623 Z M116.222,60.194 C116.945337,60.194 117.560164,59.8943363 118.0665,59.295 C118.572836,58.6956637 118.970665,57.9723376 119.26,57.125 L119.26,52.692 L117.586,52.692 C116.283993,52.692 115.31267,53.0071635 114.672,53.6375 C114.03133,54.2678365 113.711,55.2753264 113.711,56.66 C113.711,57.7760056 113.938331,58.6439969 114.393,59.264 C114.847669,59.8840031 115.45733,60.194 116.222,60.194 L116.222,60.194 Z M119.694,61 C119.632,60.7933323 119.564834,60.5298349 119.4925,60.2095 C119.420166,59.8891651 119.363334,59.4500028 119.322,58.892 C118.949998,59.6360037 118.485003,60.2249978 117.927,60.659 C117.368997,61.0930022 116.697337,61.31 115.912,61.31 C114.857995,61.31 114.000337,60.9121706 113.339,60.1165 C112.677663,59.3208294 112.347,58.2100071 112.347,56.784 C112.347,55.1099916 112.791329,53.844171 113.68,52.9865 C114.568671,52.128829 115.860325,51.7 117.555,51.7 L119.26,51.7 L119.26,49.747 C119.26,48.5276606 119.043002,47.6441694 118.609,47.0965 C118.174998,46.5488306 117.524004,46.275 116.656,46.275 C115.994663,46.275 115.37467,46.4248318 114.796,46.7245 C114.21733,47.0241682 113.742002,47.442664 113.37,47.98 L112.967,46.647 C113.277002,46.2336646 113.747164,45.8668349 114.3775,45.5465 C115.007836,45.2261651 115.767329,45.066 116.656,45.066 C117.93734,45.066 118.918997,45.4328297 119.601,46.1665 C120.283003,46.9001703 120.624,48.0419922 120.624,49.592 L120.624,58.117 C120.624,58.654336 120.655,59.1968306 120.717,59.7445 C120.779,60.2921694 120.861666,60.7106652 120.965,61 L119.694,61 Z M128.467,60.101 C128.983669,60.101 129.433165,60.0183342 129.8155,59.853 C130.197835,59.6876658 130.523332,59.4913345 130.792,59.264 C131.102002,59.0366655 131.360332,58.7576683 131.567,58.427 L132.032,59.574 C131.783999,59.9046683 131.484335,60.1939988 131.133,60.442 C130.843665,60.6693345 130.471669,60.8708325 130.017,61.0465 C129.562331,61.2221675 129.035336,61.31 128.436,61.31 C126.865325,61.31 125.651171,60.6021737 124.7935,59.1865 C123.935829,57.7708263 123.507,55.7816795 123.507,53.219 C123.507,50.6356537 123.930662,48.6310071 124.778,47.205 C125.625338,45.7789929 126.854992,45.066 128.467,45.066 C129.293671,45.066 129.980831,45.2054986 130.5285,45.4845 C131.076169,45.7635014 131.525665,46.1096646 131.877,46.523 L131.474,48.011 C131.122665,47.5356643 130.704169,47.1223351 130.2185,46.771 C129.732831,46.4196649 129.149003,46.244 128.467,46.244 C127.247661,46.244 126.34867,46.848494 125.77,48.0575 C125.19133,49.266506 124.902,50.9869888 124.902,53.219 C124.902,55.4096776 125.186164,57.1043273 125.7545,58.303 C126.322836,59.5016727 127.226994,60.101 128.467,60.101 L128.467,60.101 Z M138.604,60.101 C139.120669,60.101 139.570165,60.0183342 139.9525,59.853 C140.334835,59.6876658 140.660332,59.4913345 140.929,59.264 C141.239002,59.0366655 141.497332,58.7576683 141.704,58.427 L142.169,59.574 C141.920999,59.9046683 141.621335,60.1939988 141.27,60.442 C140.980665,60.6693345 140.608669,60.8708325 140.154,61.0465 C139.699331,61.2221675 139.172336,61.31 138.573,61.31 C137.002325,61.31 135.788171,60.6021737 134.9305,59.1865 C134.072829,57.7708263 133.644,55.7816795 133.644,53.219 C133.644,50.6356537 134.067662,48.6310071 134.915,47.205 C135.762338,45.7789929 136.991992,45.066 138.604,45.066 C139.430671,45.066 140.117831,45.2054986 140.6655,45.4845 C141.213169,45.7635014 141.662665,46.1096646 142.014,46.523 L141.611,48.011 C141.259665,47.5356643 140.841169,47.1223351 140.3555,46.771 C139.869831,46.4196649 139.286003,46.244 138.604,46.244 C137.384661,46.244 136.48567,46.848494 135.907,48.0575 C135.32833,49.266506 135.039,50.9869888 135.039,53.219 C135.039,55.4096776 135.323164,57.1043273 135.8915,58.303 C136.459836,59.5016727 137.363994,60.101 138.604,60.101 L138.604,60.101 Z M147.594,60.194 C148.317337,60.194 148.932164,59.8943363 149.4385,59.295 C149.944836,58.6956637 150.342665,57.9723376 150.632,57.125 L150.632,52.692 L148.958,52.692 C147.655993,52.692 146.68467,53.0071635 146.044,53.6375 C145.40333,54.2678365 145.083,55.2753264 145.083,56.66 C145.083,57.7760056 145.310331,58.6439969 145.765,59.264 C146.219669,59.8840031 146.82933,60.194 147.594,60.194 L147.594,60.194 Z M151.066,61 C151.004,60.7933323 150.936834,60.5298349 150.8645,60.2095 C150.792166,59.8891651 150.735334,59.4500028 150.694,58.892 C150.321998,59.6360037 149.857003,60.2249978 149.299,60.659 C148.740997,61.0930022 148.069337,61.31 147.284,61.31 C146.229995,61.31 145.372337,60.9121706 144.711,60.1165 C144.049663,59.3208294 143.719,58.2100071 143.719,56.784 C143.719,55.1099916 144.163329,53.844171 145.052,52.9865 C145.940671,52.128829 147.232325,51.7 148.927,51.7 L150.632,51.7 L150.632,49.747 C150.632,48.5276606 150.415002,47.6441694 149.981,47.0965 C149.546998,46.5488306 148.896004,46.275 148.028,46.275 C147.366663,46.275 146.74667,46.4248318 146.168,46.7245 C145.58933,47.0241682 145.114002,47.442664 144.742,47.98 L144.339,46.647 C144.649002,46.2336646 145.119164,45.8668349 145.7495,45.5465 C146.379836,45.2261651 147.139329,45.066 148.028,45.066 C149.30934,45.066 150.290997,45.4328297 150.973,46.1665 C151.655003,46.9001703 151.996,48.0419922 151.996,49.592 L151.996,58.117 C151.996,58.654336 152.027,59.1968306 152.089,59.7445 C152.151,60.2921694 152.233666,60.7106652 152.337,61 L151.066,61 Z" id="Яндекс-Касса"></path>
            </g>
        </g>
    </g>
</svg>